<?xml version="1.0" standalone="no"?>
<svg
  width="600"
  height="600"
  viewBox="0 0 600 600"
  xmlns="http://www.w3.org/2000/svg"
>
  <g transform="translate(300,300)">
    <path d="M119.6,-160.7C159,-136.1,197.4,-106.4,219.3,-65.1C241.3,-23.8,246.6,29,231.3,74.9C216,120.7,180,159.4,138,173.3C96,187.1,48,176.1,-4.6,182.4C-57.2,188.7,-114.4,212.5,-157.5,199C-200.7,185.5,-229.7,134.8,-226.7,87.1C-223.8,39.3,-188.9,-5.4,-163,-43C-137,-80.6,-119.9,-111.1,-94.3,-140.1C-68.6,-169.1,-34.3,-196.5,2.9,-200.6C40.2,-204.6,80.3,-185.2,119.6,-160.7Z" fill="#0099ff" />
  </g>
</svg>
  